<svg xmlns="http://www.w3.org/2000/svg" width="1024" height="1024" viewBox="0 0 1024 1024"><circle cx="512" cy="512" r="512" fill="#286A9A"/><path d="M235.8 564.1c-6.8-6.3-13.2-12.3-20.1-18.6 -2.5 7.5-5 14.6-7.3 21.7 -2.7 8.3-9.7 11.7-17.8 8.4 -24.2-10-48.3-20-72.4-30 -7.6-3.2-10-7.9-7.5-15.6 7.4-23 15-45.9 22.5-68.9 15.3-46.3 30.7-92.6 46-138.9 4-12 7.9-24 11.9-36 2.2-6.7 9-9.7 15.4-6.5 16 8.1 31.9 16.4 47.9 24.5 11.1 5.7 22.1 11.7 33.5 16.8 4.5 2 9.9 2.2 14.9 2.8 35.5 4.3 71 8.4 106.4 12.9 17.5 2.2 34.8 5 52.3 7.4 2.1 0.3 4.6-0.3 6.6-1 15.6-5.8 31.1-5.3 47.1-1.4 24.2 6 48.6 11.3 73 16.9 6.2 1.4 12.4 3.1 18.7 4.3 2.1 0.4 4.7 0.3 6.6-0.5 18.9-8.1 37.6-16.5 56.5-24.7 3.2-1.4 4.8-2.8 4.9-6.7 0.1-2.5 2.1-5.7 4.2-7.3 10.8-7.8 21.7-15.5 32.9-22.7 14.8-9.5 29.9-18.7 44.9-27.9 9.5-5.8 13.3-4.7 19.7 4.5 24.7 35.5 49.5 71.1 74.3 106.6 19.6 28.1 39.4 56 58.8 84.3 2.6 3.7 3.7 8.7 4.4 13.3 0.8 4.9-1.8 8.5-6.1 11.4 -23.9 15.8-47.6 31.9-71.3 48 -7.9 5.3-15.8 3.9-22.1-4.9 -2.9-4.1-5.2-8.7-8.1-13.9 -24.5 30-56.8 45.1-94.2 50.8 0.8 6.8 1.9 13.1 2.3 19.5 0.8 14.3-1.1 28.3-8.5 41 -5.7 9.8-13.9 16.7-24.6 20.2 -3.1 1-4.4 2.6-5 5.7 -3.1 15.4-9.2 29.5-22.6 38.6 -6.8 4.6-14.9 7.5-22.5 10.8 -2.4 1-3.9 1.7-4.8 4.6 -4.5 14.3-14.6 24-27.4 31 -16.4 9-33.5 11.1-51.3 3.9 -1.1-0.5-3.5 0.8-4.6 1.9 -9.2 9.6-19.4 17.2-32.7 20 -16.4 3.5-31.2-0.9-44.3-10.4 -11.6-8.4-22.4-17.8-33.5-26.7 -4.8 5.3-9.2 11.4-14.7 16.1 -20.7 17.6-38.7 17.5-59.1-0.2 -15.9-13.8-31.8-27.7-47.1-42.2 -19.3-18.2-38-37-56.9-55.6 -7.6-7.5-15.7-14.7-22.5-22.8 -14.4-17.2-17.9-39.3-0.5-59.2C233.2 567.8 234.4 566 235.8 564.1zM418 643.6c15.8 3 27.4 11.4 33.4 26.1 5.9 14.3 4.9 28.6-3.4 41.2 9 8 17.8 15.5 26.3 23.3 20.3 18.7 39.5 10.4 49.9-3.7 2.1-2.9 2.4-4.7-0.8-7.2 -19.8-15-39.6-30.1-59.2-45.4 -3-2.3-5.9-5.5-7.2-9 -1.7-4.3 0.4-8.4 4.3-11.2 3.8-2.8 8-2.7 11.5-0.1 7.9 5.6 15.5 11.6 23.2 17.5 18.1 14 36.1 28.1 54.3 42.1 3 2.3 6 4.9 9.3 6.4 19 8.9 38.5-6.8 42-22.6 0.2-1-0.4-2.5-1.2-3.3 -4-3.7-8-7.3-12.4-10.7 -24.9-19.1-50-38.2-75-57.2 -10-7.6-20-15.1-29.9-22.7 -5.3-4.1-6.7-9.6-3.8-14.8 2.7-4.9 8.5-6.7 14.6-4.1 3.4 1.5 6.8 3.4 9.7 5.7 6.5 5.1 12.5 10.7 19 15.7 20.6 15.9 41.3 31.7 62 47.5 9.8 7.5 19.7 14.9 29.4 22.5 6 4.7 12 4.6 18.3 0.9 7.8-4.6 13.5-10.9 16.6-19.5 2.5-7.1 1.5-11-4.4-15.6 -5.7-4.4-11.7-8.5-17.5-12.9 -26.9-20.4-53.7-40.9-80.6-61.3 -11.3-8.6-22.8-16.8-33.9-25.6 -5.6-4.4-5.9-10.8-1.9-15.8 3.7-4.6 9.8-5.3 15.4-1.2 6.8 4.9 13.4 10.2 20 15.3 21.1 16 42.2 32.1 63.3 48.1 15.1 11.5 30.2 22.9 45.1 34.5 9.9 7.7 16.5 5.2 24.5-2.8 3.1-3.1 5.4-7.5 6.8-11.8 4-12 3-24-1.5-35.8 -0.5-1.4-1.6-2.8-2.8-3.8 -4.9-4.6-10.1-8.9-14.8-13.7C659.2 551 652.7 541.9 644.2 535.3c-10.7-8.3-22.8-15-34.6-21.9 -35.7-20.7-71.6-41.2-107.5-61.7 -1.5-0.8-4-0.8-5.6-0.1 -8.2 3.3-16.3 7.1-24.5 10.4 -23.2 9.3-46.9 16.6-72.4 13.4 -22.6-2.8-40.9-13.3-53.7-32.2 -10.9-16-7.2-33.1 9.6-42.6 15.7-8.9 32.2-16.4 48.3-24.6 6-3.1 11.8-6.6 18.8-10.5 -2.2-0.5-3-0.7-3.8-0.8 -13.9-1.4-27.8-2.9-41.8-4.1 -31.2-2.7-62.4-5.2-93.6-7.9 -2.8-0.2-4 0.6-4.9 3.3 -16.5 50.1-33 100.1-49.9 150.1 -2.3 6.9-1.1 11.8 3.6 16.5 6.9 6.8 14 13.4 21 20.1 18.4-15 44.3-13.2 60.5 4 1.1 1.2 3.5 2.3 4.7 1.9 24.8-8.5 57.7 11.6 59.3 40 0.2 2.7 1.3 3.4 3.9 3.9 9.2 1.9 17.3 6.2 23.7 13.3C415 616.3 418.8 628.9 418 643.6zM792.8 503.4c-0.6-0.8-1.4-2-2.2-3.2 -13.2-18.5-26.5-36.9-39.7-55.4 -19.8-27.7-39.5-55.5-59.4-83.2 -0.7-1-3.2-1.7-4.3-1.3 -21.3 8.6-42.6 17.2-63.8 26.2 -7 3-13.8 3.9-21.1 2.1 -31.5-7.4-63-14.7-94.5-22 -4.6-1.1-9.4-1.7-14.1-2.1 -9.7-0.7-18.5 3.1-26.9 7.3 -15.9 7.9-31.3 16.8-47.1 25 -16.5 8.6-33.1 16.8-49.8 25 -3.9 1.9-4.7 4-2.1 7.5 8.8 11.9 20.6 18.7 35.2 20.3 15.4 1.6 30.3-1.1 44.5-6.5 17-6.6 33.6-14.1 50.5-20.9 1.8-0.7 4.7-0.8 6.3 0.1 20.1 11.7 39.9 23.7 59.9 35.4 28.8 16.9 57.8 33.5 86.5 50.4 8.6 5.1 16.9 10.8 23.2 18.9 4.3 5.4 9 10.5 13.3 15.9 3.8 4.9 8.3 7.1 14.5 5.8 3.8-0.8 7.8-1.3 11.6-2 19.1-3.6 37.3-9.7 52.9-21.6C775.3 518.3 783.9 510.8 792.8 503.4zM759.3 296.8c-20 12.9-39.7 25.5-59.3 38.1C743.3 398.4 790.4 458.4 829.8 524.2c20.4-13.8 40.5-27.4 60.9-41.2C846.8 420.8 803.2 359 759.3 296.8zM136 528.8c18.3 8.1 36.1 15.9 54 23.7 0.5-1 0.9-1.5 1.1-2.2 10.9-33.7 21.8-67.5 32.7-101.2 12-37 24-74 36-111 0.9-2.7 1.7-4.6-1.9-6.3 -12.5-5.9-24.8-12.3-37.1-18.4 -4.5-2.2-9.1-4.4-14-6.8C183.1 380.9 159.6 454.6 136 528.8zM301.9 660.9c0.4-0.3 1-0.7 1.4-1.1 14.3-17.8 28.8-35.6 42.8-53.7 2.7-3.5 4.9-8 5.5-12.4 1.4-9.6-6.7-18.5-17.8-20.7 -6-1.2-11 0.7-14.9 5.5 -5.1 6.3-10.1 12.6-15.2 18.9 -9.8 12.2-19.5 24.4-29.1 36.3C283.9 643 292.8 651.9 301.9 660.9zM344.5 702.3c1.6-1.7 3-3 4.2-4.5 12.8-15.9 25.5-31.9 38.3-47.8 6.5-8.1 6.9-15.1 1.2-23.9 -6.7-10.3-21.3-11-29-1.4 -8.7 10.8-17.4 21.5-26 32.3 -5.2 6.5-10.4 13.1-15.8 19.9C326.6 685.4 335.4 693.7 344.5 702.3zM361.1 716.8c6.8 5.7 12.9 11.3 19.4 16.2 7.8 5.8 17.1 4.1 22.8-3.8 7.8-10.8 15.5-21.6 22.8-32.7 6.3-9.4 2-21.9-8.6-26 -9-3.4-18.3-0.9-24.5 6.7C382.6 690.2 372 703.2 361.1 716.8zM298.2 569.7c-8.9-14.5-23-15.2-32.9-1.8 -5.1 6.8-10.1 13.8-15.3 20.5 -4.1 5.2-5.1 10.8-2 16.5 2.7 5 6.4 9.6 10 14.8C271.9 602.4 285 586.2 298.2 569.7z" fill="#FFF"/></svg>